<?xml version="1.0" encoding="UTF-8"?><svg xmlns="http://www.w3.org/2000/svg" xmlns:xlink="http://www.w3.org/1999/xlink" viewBox="0 0 176.39 250.87"><defs><style>.e{fill:none;}.f{fill:#f9f5f2;}.g{fill:#001f31;}.h{fill:#e23b00;}.i{clip-path:url(#d);}</style><clipPath id="d"><rect class="e" width="176.39" height="250.87"/></clipPath></defs><g id="a"/><g id="b"><g id="c"><g><rect class="f" width="176.39" height="250.87"/><g class="i"><g><g><path class="h" d="M86.22,214.23c-2.9,0-4.38-.12-5.79-.23-1.42-.12-2.88-.22-5.76-.22s-4.34-.01-5.78-.02c-1.44-.01-2.89-.02-5.78-.02s-4.35,.08-5.77,.15c-1.43,.07-2.9,.15-5.79,.15s-4.37-.07-5.79-.15c-1.42-.07-2.88-.15-5.77-.15s-4.35,.05-5.77,.08c-1.43,.05-2.89,.08-5.79,.08h-11.57c-2.89,0-4.35,.03-5.77,.06-1.42,.03-2.89,.06-5.78,.06H-6.28v-.58H5.28c2.89,0,4.35-.02,5.77-.06s2.89-.06,5.78-.06h11.57c2.89,0,4.35-.05,5.77-.08,1.43-.05,2.89-.08,5.79-.08s4.37,.07,5.79,.15c1.42,.07,2.88,.15,5.77,.15s4.35-.08,5.77-.15c1.43-.07,2.9-.15,5.79-.15s4.34,.01,5.78,.02c1.44,.01,2.89,.02,5.78,.02s4.38,.12,5.79,.23c1.42,.12,2.88,.22,5.76,.22s4.34-.1,5.76-.21c1.43-.1,2.9-.21,5.79-.21s4.37,.06,5.79,.12c1.42,.06,2.88,.12,5.77,.12s4.33-.01,5.78-.03c1.45-.01,2.89-.03,5.78-.03s4.37,.05,5.79,.09c1.42,.05,2.89,.09,5.77,.09s4.35-.05,5.77-.08c1.43-.03,2.89-.08,5.79-.08s4.34,.02,5.78,.05c1.44,.02,2.89,.05,5.77,.05s4.34,0,5.78,.01c1.44,0,2.89,.01,5.78,.01s4.37-.03,5.78-.07c1.43-.03,2.9-.07,5.79-.07s4.38,.06,5.81,.12c1.42,.06,2.89,.12,5.78,.12v.58c-2.9,0-4.38-.06-5.81-.12-1.42-.06-2.89-.12-5.78-.12s-4.37,.03-5.78,.07c-1.43,.03-2.9,.07-5.79,.07s-4.34,0-5.78-.01c-1.44,0-2.89-.01-5.78-.01s-4.34-.02-5.78-.05c-1.44-.02-2.89-.05-5.77-.05s-4.35,.05-5.77,.08c-1.43,.03-2.89,.08-5.79,.08s-4.37-.05-5.79-.09c-1.42-.05-2.89-.09-5.77-.09s-4.33,.01-5.78,.03c-1.45,.01-2.89,.03-5.78,.03s-4.37-.06-5.79-.12c-1.42-.06-2.88-.12-5.77-.12s-4.34,.1-5.76,.21c-1.43,.1-2.9,.21-5.79,.21Z"/><path class="h" d="M120.91,209.97c-2.89,0-4.37-.06-5.79-.12-1.42-.06-2.88-.12-5.77-.12s-4.37-.03-5.78-.07-2.89-.07-5.77-.07-4.33,0-5.78,.01c-1.44,0-2.89,.01-5.78,.01s-4.35,.03-5.77,.07-2.89,.07-5.78,.07-4.33-.01-5.78-.02c-1.44-.01-2.89-.02-5.78-.02s-4.35,.05-5.77,.09c-1.43,.05-2.89,.09-5.79,.09s-4.33,0-5.78-.01h-5.78c-2.89,0-4.34-.01-5.78-.03-1.44-.01-2.89-.03-5.78-.03s-4.33,.01-5.78,.02c-1.45,.01-2.89,.02-5.78,.02s-4.33-.01-5.78-.03c-1.44-.01-2.89-.03-5.77-.03s-4.35,.05-5.77,.08c-1.42,.03-2.89,.08-5.78,.08v-.58c2.89,0,4.35-.05,5.77-.08,1.42-.03,2.89-.08,5.78-.08s4.33,.01,5.78,.03c1.44,.01,2.89,.03,5.77,.03s4.33-.01,5.78-.02c1.45-.01,2.89-.02,5.78-.02s4.34,.01,5.78,.03c1.44,.01,2.89,.03,5.78,.03h5.78c1.44,0,2.89,.01,5.78,.01s4.35-.05,5.77-.09c1.43-.05,2.89-.09,5.79-.09s4.33,.01,5.78,.02c1.44,.01,2.89,.02,5.78,.02s4.35-.03,5.77-.07,2.89-.07,5.78-.07,4.33,0,5.78-.01c1.44,0,2.89-.01,5.78-.01s4.37,.03,5.78,.07,2.89,.07,5.77,.07,4.37,.06,5.79,.12c1.42,.06,2.88,.12,5.77,.12s4.34-.14,5.76-.27c1.43-.13,2.9-.27,5.81-.27s4.37,.06,5.79,.13c1.42,.06,2.88,.13,5.77,.13s4.35-.05,5.77-.09c1.42-.05,2.89-.09,5.79-.09s4.38,.1,5.81,.21c1.42,.1,2.88,.21,5.76,.21s4.35-.13,5.77-.24c1.43-.12,2.9-.24,5.82-.24s4.38,.1,5.81,.2c1.42,.09,2.88,.2,5.77,.2v.58c-2.9,0-4.38-.1-5.81-.2-1.42-.09-2.88-.2-5.77-.2s-4.35,.13-5.77,.24c-1.43,.12-2.9,.24-5.82,.24s-4.38-.1-5.81-.21c-1.42-.1-2.88-.21-5.76-.21s-4.35,.05-5.77,.09c-1.42,.05-2.89,.09-5.78,.09s-4.37-.06-5.79-.13c-1.42-.06-2.88-.13-5.77-.13s-4.34,.14-5.76,.27c-1.43,.13-2.9,.27-5.81,.27h-.01Z"/><path class="h" d="M190.34,205.6c-2.9,0-4.38-.1-5.81-.2-1.42-.09-2.88-.2-5.77-.2s-4.34-.01-5.79-.02c-1.45-.01-2.89-.02-5.78-.02s-4.35,.07-5.77,.14c-1.43,.07-2.9,.14-5.79,.14s-4.37-.06-5.79-.1c-1.42-.06-2.88-.1-5.77-.1s-4.34-.02-5.78-.05c-1.44-.02-2.89-.05-5.78-.05s-4.33,.01-5.78,.03c-1.45,.01-2.89,.03-5.78,.03s-4.34,.1-5.76,.2c-1.43,.09-2.9,.2-5.81,.2s-4.34-.02-5.78-.03c-1.44-.02-2.89-.03-5.78-.03s-4.37-.05-5.79-.09c-1.42-.05-2.88-.09-5.77-.09s-4.35,.03-5.77,.07-2.89,.07-5.78,.07-4.37-.05-5.79-.09c-1.42-.05-2.88-.09-5.77-.09s-4.35,.05-5.77,.08c-1.42,.05-2.89,.08-5.79,.08s-4.35,.02-5.77,.05c-1.42,.02-2.89,.05-5.78,.05s-4.38-.1-5.81-.2c-1.42-.09-2.88-.2-5.76-.2s-4.34,.09-5.76,.19c-1.43,.09-2.9,.19-5.79,.19s-4.37-.03-5.78-.06c-1.42-.03-2.89-.06-5.77-.06s-4.33,.01-5.78,.02c-1.44,.01-2.89,.02-5.78,.02v-.58c2.89,0,4.33-.01,5.78-.02,1.44-.01,2.89-.02,5.78-.02s4.37,.03,5.78,.06c1.42,.03,2.89,.06,5.77,.06s4.34-.09,5.76-.19c1.43-.09,2.9-.19,5.79-.19s4.38,.1,5.81,.2c1.42,.09,2.88,.2,5.76,.2s4.35-.02,5.77-.05c1.42-.02,2.89-.05,5.78-.05s4.35-.05,5.77-.08c1.42-.05,2.89-.08,5.79-.08s4.37,.05,5.79,.09c1.42,.05,2.89,.09,5.77,.09s4.35-.03,5.77-.07,2.89-.07,5.78-.07,4.37,.05,5.78,.09c1.42,.05,2.89,.09,5.77,.09s4.34,.02,5.78,.03c1.44,.02,2.89,.03,5.78,.03s4.34-.1,5.76-.2c1.43-.09,2.9-.2,5.81-.2s4.33-.01,5.78-.03c1.45-.01,2.89-.03,5.78-.03s4.34,.02,5.78,.05c1.44,.02,2.89,.05,5.78,.05s4.37,.06,5.79,.1c1.42,.06,2.88,.1,5.77,.1s4.35-.07,5.77-.14c1.43-.07,2.9-.14,5.79-.14s4.34,.01,5.79,.02c1.45,.01,2.89,.02,5.78,.02s4.38,.1,5.81,.2c1.42,.09,2.88,.2,5.77,.2v.58h.01Z"/><path class="h" d="M28.43,201.39c-2.89,0-4.37-.07-5.79-.13-1.42-.06-2.88-.13-5.77-.13s-4.33-.01-5.78-.03c-1.44-.01-2.89-.03-5.77-.03s-4.37-.03-5.78-.07-2.89-.07-5.77-.07v-.58c2.89,0,4.37,.03,5.78,.07s2.89,.07,5.77,.07,4.33,.01,5.78,.03c1.44,.01,2.89,.03,5.77,.03s4.37,.07,5.79,.13c1.42,.06,2.88,.13,5.77,.13s4.34-.13,5.76-.24c1.43-.13,2.9-.26,5.81-.26s4.37,.05,5.79,.1c1.42,.05,2.88,.09,5.77,.09h11.57c2.89,0,4.37,.05,5.79,.1,1.42,.05,2.89,.09,5.77,.09s4.35-.03,5.77-.08c1.42-.03,2.89-.08,5.78-.08s4.37,.06,5.79,.1c1.42,.05,2.88,.1,5.77,.1s4.35-.03,5.77-.07c1.43-.03,2.89-.07,5.79-.07s4.35-.06,5.77-.12c1.43-.06,2.89-.12,5.79-.12s4.37,.03,5.79,.08c1.42,.03,2.89,.08,5.77,.08s4.37,.03,5.79,.07c1.42,.03,2.89,.07,5.78,.07s4.34-.1,5.76-.2c1.43-.09,2.9-.2,5.79-.2s4.34,.02,5.79,.03c1.44,.02,2.89,.03,5.78,.03h11.58c2.9,0,4.37,.02,5.79,.05,1.42,.02,2.89,.06,5.78,.06v.58c-2.89,0-4.37-.02-5.79-.06-1.42-.02-2.89-.06-5.78-.06h-11.58c-2.89,0-4.34-.01-5.78-.03-1.44-.02-2.89-.03-5.78-.03s-4.34,.1-5.76,.2c-1.43,.09-2.9,.2-5.79,.2s-4.37-.03-5.79-.07c-1.42-.03-2.89-.07-5.78-.07s-4.37-.03-5.79-.08c-1.42-.03-2.89-.08-5.77-.08s-4.35,.06-5.77,.12c-1.43,.06-2.89,.12-5.79,.12s-4.35,.03-5.77,.07c-1.43,.03-2.89,.07-5.79,.07s-4.37-.06-5.79-.1c-1.42-.05-2.88-.1-5.77-.1s-4.35,.03-5.77,.08c-1.42,.03-2.89,.08-5.78,.08s-4.37-.05-5.79-.09c-1.42-.05-2.88-.1-5.77-.1h-11.57c-2.89,0-4.37-.05-5.79-.09-1.42-.05-2.89-.1-5.77-.1s-4.34,.13-5.76,.24c-1.43,.13-2.9,.26-5.81,.26h-.01Z"/><path class="h" d="M155.61,197.1c-2.89,0-4.37-.03-5.78-.06s-2.89-.06-5.77-.06-4.38-.09-5.81-.17c-1.42-.08-2.88-.17-5.77-.17s-4.35,.07-5.77,.13c-1.43,.07-2.9,.13-5.79,.13s-4.33,.02-5.78,.03c-1.45,.02-2.89,.05-5.78,.05s-4.37-.02-5.78-.05c-1.42-.02-2.89-.05-5.78-.05s-4.37-.07-5.79-.13c-1.42-.07-2.88-.13-5.77-.13s-4.33,0-5.78-.02c-1.44,0-2.89-.02-5.77-.02s-4.35,.02-5.77,.06c-1.42,.02-2.89,.06-5.78,.06s-4.35,.07-5.77,.15c-1.43,.07-2.9,.15-5.79,.15s-4.38-.1-5.81-.21c-1.42-.1-2.88-.21-5.76-.21s-4.34,.13-5.76,.26c-1.43,.13-2.9,.26-5.81,.26s-4.37-.03-5.78-.07-2.89-.07-5.77-.07H5.3c-2.89,0-4.37-.05-5.78-.08-1.42-.03-2.89-.08-5.77-.08v-.58c2.89,0,4.37,.03,5.78,.08,1.42,.03,2.89,.08,5.77,.08h11.55c2.89,0,4.37,.03,5.78,.07s2.89,.07,5.77,.07,4.34-.13,5.76-.26c1.43-.13,2.9-.26,5.81-.26s4.38,.1,5.81,.21c1.42,.1,2.88,.21,5.76,.21s4.35-.07,5.77-.15c1.43-.07,2.9-.15,5.79-.15s4.35-.02,5.77-.06c1.42-.02,2.89-.06,5.78-.06s4.33,0,5.78,.02c1.44,0,2.89,.02,5.77,.02s4.37,.07,5.79,.13c1.42,.07,2.88,.13,5.77,.13s4.37,.02,5.78,.05c1.42,.02,2.89,.05,5.78,.05s4.33-.02,5.78-.03c1.45-.02,2.89-.05,5.78-.05s4.35-.07,5.77-.13c1.43-.07,2.9-.13,5.79-.13s4.38,.09,5.81,.17c1.42,.08,2.88,.17,5.77,.17s4.37,.03,5.78,.06,2.89,.06,5.77,.06,4.34-.1,5.76-.2c1.43-.1,2.9-.21,5.81-.21h11.58c2.9,0,4.38,.09,5.81,.17,1.42,.09,2.88,.19,5.77,.19v.58c-2.9,0-4.38-.09-5.81-.19-1.42-.09-2.88-.19-5.77-.19h-11.58c-2.88,0-4.35,.1-5.77,.21-1.43,.1-2.9,.21-5.81,.21h.01Z"/><path class="h" d="M144.04,192.78c-2.89,0-4.34-.02-5.78-.05-1.44-.02-2.89-.05-5.78-.05s-4.37-.03-5.79-.07c-1.42-.03-2.89-.07-5.77-.07s-4.34,0-5.78-.01c-1.44,0-2.89-.01-5.78-.01s-4.34,0-5.78-.02c-1.44,0-2.89-.02-5.78-.02s-4.33-.01-5.78-.02c-1.44-.01-2.89-.02-5.77-.02s-4.35,.05-5.77,.08c-1.42,.05-2.89,.08-5.78,.08s-4.33,.01-5.77,.03c-1.45,.01-2.89,.03-5.78,.03s-4.38-.1-5.81-.21c-1.42-.1-2.88-.2-5.76-.2s-4.34,.1-5.76,.2c-1.43,.1-2.9,.21-5.81,.21s-4.34-.02-5.78-.05c-1.44-.02-2.89-.05-5.78-.05s-4.33,0-5.78-.01c-1.44,0-2.89-.01-5.78-.01s-4.33,.01-5.77,.02c-1.44,.01-2.89,.02-5.78,.02s-4.33,.01-5.78,.02c-1.45,.01-2.89,.02-5.78,.02v-.58c2.89,0,4.33-.01,5.78-.02,1.45-.01,2.89-.02,5.78-.02s4.33-.01,5.77-.02c1.44-.01,2.89-.02,5.78-.02s4.33,0,5.78,.01c1.44,0,2.89,.01,5.78,.01s4.34,.02,5.78,.05c1.44,.02,2.89,.05,5.78,.05s4.34-.1,5.76-.2c1.43-.1,2.9-.21,5.81-.21s4.38,.1,5.81,.21c1.42,.1,2.88,.2,5.76,.2s4.33-.01,5.77-.03c1.45-.01,2.89-.03,5.78-.03s4.35-.05,5.77-.08c1.42-.05,2.89-.08,5.78-.08s4.33,.01,5.78,.02c1.44,.01,2.89,.02,5.77,.02s4.34,0,5.78,.02c1.44,0,2.89,.02,5.78,.02s4.34,0,5.78,.01c1.44,0,2.89,.01,5.78,.01s4.37,.03,5.78,.07,2.89,.07,5.77,.07,4.34,.02,5.78,.05c1.44,.02,2.89,.05,5.78,.05s4.33-.01,5.78-.02c1.45-.01,2.89-.02,5.78-.02s4.34-.1,5.76-.2c1.43-.1,2.9-.21,5.81-.21s4.38,.1,5.81,.21c1.42,.1,2.88,.21,5.77,.21s4.35-.06,5.78-.1c1.43-.05,2.9-.1,5.79-.1v.58c-2.89,0-4.35,.06-5.78,.1-1.43,.05-2.9,.1-5.79,.1s-4.38-.1-5.81-.21c-1.42-.1-2.88-.21-5.77-.21s-4.35,.1-5.77,.2c-1.43,.1-2.9,.21-5.81,.21s-4.33,.01-5.78,.02c-1.45,.01-2.89,.02-5.78,.02h.02Z"/><path class="h" d="M155.61,188.48c-2.9,0-4.38-.13-5.81-.24-1.42-.12-2.88-.24-5.76-.24s-4.34,.09-5.76,.2c-1.43,.09-2.9,.2-5.81,.2s-4.33,.02-5.78,.03c-1.45,.02-2.89,.03-5.78,.03s-4.38-.12-5.81-.23c-1.42-.12-2.88-.23-5.76-.23s-4.34,.1-5.76,.21c-1.43,.1-2.9,.21-5.81,.21s-4.37-.03-5.78-.06c-1.42-.03-2.89-.06-5.77-.06s-4.33,0-5.77,.02c-1.44,0-2.89,.02-5.78,.02s-4.37-.03-5.78-.08c-1.42-.03-2.89-.08-5.77-.08s-4.33,0-5.78-.02c-1.44,0-2.89-.02-5.78-.02s-4.37-.03-5.78-.07-2.89-.07-5.77-.07-4.34,.1-5.76,.21c-1.43,.1-2.9,.21-5.81,.21s-4.37-.07-5.79-.14c-1.42-.07-2.88-.14-5.77-.14s-4.35,.06-5.77,.12c-1.43,.06-2.89,.12-5.79,.12s-4.37-.08-5.79-.15c-1.42-.07-2.88-.15-5.77-.15v-.58c2.9,0,4.37,.08,5.79,.15,1.42,.07,2.88,.15,5.77,.15s4.35-.06,5.77-.12c1.43-.06,2.89-.12,5.79-.12s4.37,.07,5.79,.14c1.42,.07,2.88,.14,5.77,.14s4.34-.1,5.76-.21c1.43-.1,2.9-.21,5.81-.21s4.37,.03,5.78,.07,2.89,.07,5.77,.07,4.34,0,5.78,.02c1.44,0,2.89,.02,5.78,.02s4.37,.03,5.78,.08c1.42,.03,2.89,.08,5.77,.08s4.33,0,5.77-.02c1.44,0,2.89-.02,5.78-.02s4.37,.03,5.78,.06c1.42,.03,2.89,.06,5.77,.06s4.34-.1,5.76-.21c1.43-.1,2.9-.21,5.81-.21s4.38,.12,5.81,.23c1.42,.12,2.88,.23,5.76,.23s4.33-.02,5.78-.03c1.45-.02,2.89-.03,5.78-.03s4.34-.09,5.76-.2c1.43-.09,2.9-.2,5.81-.2s4.38,.13,5.81,.24c1.42,.12,2.88,.24,5.76,.24s4.33-.01,5.78-.03c1.45-.01,2.89-.03,5.78-.03s4.34,0,5.78-.02c1.45,0,2.89-.02,5.79-.02s4.37-.03,5.78-.06c1.43-.02,2.9-.06,5.79-.06v.58c-2.89,0-4.37,.03-5.78,.06-1.43,.02-2.9,.06-5.79,.06s-4.34,0-5.78,.02c-1.45,0-2.89,.02-5.79,.02s-4.33,.01-5.78,.03c-1.45,.01-2.89,.03-5.78,.03h0Z"/><path class="h" d="M16.86,184.22c-2.89,0-4.37-.08-5.79-.15-1.42-.08-2.88-.15-5.76-.15H-6.26v-.58H5.31c2.89,0,4.37,.08,5.79,.15,1.42,.08,2.88,.15,5.76,.15s4.34-.09,5.76-.17c1.43-.08,2.9-.17,5.79-.17s4.37,.03,5.78,.07,2.89,.07,5.77,.07,4.37,.02,5.78,.06c1.42,.02,2.89,.06,5.77,.06s4.33,0,5.78,.01c1.44,0,2.89,.01,5.78,.01s4.35-.05,5.77-.08c1.42-.03,2.89-.08,5.78-.08h11.54c2.88,0,4.35-.03,5.77-.06,1.42-.03,2.89-.07,5.78-.07s4.33-.01,5.78-.02c1.45-.01,2.89-.02,5.78-.02s4.33,0,5.78-.02c1.45,0,2.89-.02,5.78-.02s4.34,.02,5.78,.05c1.44,.02,2.89,.05,5.78,.05s4.34,.02,5.78,.05c1.44,.02,2.89,.05,5.78,.05s4.37,.07,5.79,.13c1.42,.07,2.88,.13,5.77,.13s4.35-.09,5.77-.19c1.43-.09,2.9-.19,5.81-.19s4.34,.02,5.79,.05c1.45,.02,2.89,.05,5.78,.05s4.38,.05,5.79,.09c1.42,.05,2.89,.09,5.78,.09v.58c-2.9,0-4.38-.05-5.79-.09-1.42-.05-2.89-.09-5.78-.09s-4.34-.02-5.79-.05c-1.45-.02-2.89-.05-5.78-.05s-4.35,.09-5.77,.19c-1.43,.09-2.9,.19-5.81,.19s-4.37-.07-5.79-.13c-1.42-.07-2.88-.13-5.77-.13s-4.34-.02-5.78-.05c-1.44-.02-2.89-.05-5.78-.05s-4.34-.02-5.78-.05c-1.44-.02-2.89-.05-5.78-.05s-4.33,0-5.78,.02c-1.45,0-2.89,.02-5.78,.02s-4.33,.01-5.78,.02c-1.45,.01-2.89,.02-5.78,.02s-4.35,.03-5.77,.06c-1.42,.03-2.89,.07-5.78,.07h-11.55c-2.88,0-4.35,.05-5.77,.08-1.42,.03-2.89,.08-5.78,.08s-4.33,0-5.78-.01c-1.44,0-2.89-.01-5.78-.01s-4.37-.02-5.78-.06c-1.42-.02-2.89-.06-5.77-.06s-4.37-.03-5.79-.07c-1.42-.03-2.89-.07-5.77-.07s-4.34,.09-5.76,.17c-1.43,.08-2.9,.17-5.79,.17h.02Z"/><path class="h" d="M97.79,179.94c-2.89,0-4.37-.07-5.79-.13-1.42-.06-2.88-.13-5.77-.13s-4.33,0-5.77,.01c-1.44,0-2.89,.02-5.78,.02s-4.37-.07-5.79-.14c-1.42-.07-2.88-.14-5.77-.14s-4.35,.06-5.77,.12c-1.43,.06-2.89,.12-5.79,.12s-4.33,0-5.78-.02c-1.44,0-2.89-.02-5.78-.02s-4.37-.03-5.78-.07-2.89-.07-5.77-.07h-11.57c-2.89,0-4.35,.07-5.77,.14-1.43,.07-2.89,.14-5.79,.14s-4.38-.09-5.79-.19-2.88-.19-5.76-.19v-.58c2.9,0,4.38,.09,5.79,.19s2.88,.19,5.76,.19,4.34-.07,5.76-.14c1.43-.07,2.89-.14,5.79-.14h11.57c2.89,0,4.37,.03,5.78,.07s2.89,.07,5.77,.07,4.33,0,5.78,.02c1.44,0,2.89,.02,5.78,.02s4.35-.06,5.77-.12c1.43-.06,2.89-.12,5.79-.12s4.37,.07,5.79,.14c1.42,.07,2.88,.14,5.77,.14s4.33,0,5.77-.01c1.44,0,2.89-.02,5.78-.02s4.37,.07,5.79,.13c1.42,.06,2.88,.13,5.77,.13s4.35-.02,5.77-.06c1.42-.02,2.89-.06,5.78-.06s4.34,.01,5.78,.02c1.44,.01,2.89,.02,5.78,.02h11.57c2.89,0,4.35-.08,5.77-.16,1.43-.08,2.9-.17,5.79-.17s4.38,.08,5.79,.17c1.42,.08,2.88,.17,5.76,.17s4.34-.1,5.76-.21c1.43-.1,2.9-.21,5.81-.21s4.38,.08,5.81,.17c1.42,.08,2.89,.16,5.77,.16s4.37-.05,5.78-.09c1.43-.05,2.9-.09,5.79-.09v.58c-2.89,0-4.35,.05-5.78,.09-1.43,.05-2.9,.09-5.79,.09s-4.38-.08-5.81-.16c-1.42-.08-2.89-.16-5.77-.16s-4.34,.1-5.76,.21c-1.43,.1-2.9,.21-5.81,.21s-4.38-.08-5.79-.17c-1.42-.08-2.88-.17-5.76-.17s-4.35,.08-5.77,.16c-1.43,.08-2.9,.17-5.79,.17h-11.57c-2.89,0-4.34-.01-5.78-.02-1.44-.01-2.89-.02-5.78-.02s-4.35,.02-5.77,.06c-1.42,.02-2.89,.06-5.78,.06h.01Z"/><path class="h" d="M155.61,175.61c-2.89,0-4.34-.02-5.78-.05-1.44-.02-2.89-.05-5.77-.05s-4.34-.02-5.78-.03c-1.44-.02-2.89-.03-5.78-.03s-4.37-.03-5.78-.06-2.89-.06-5.77-.06-4.34-.02-5.78-.03c-1.44-.02-2.89-.03-5.78-.03s-4.35,.08-5.77,.16c-1.43,.08-2.9,.16-5.79,.16s-4.37-.05-5.78-.08c-1.42-.03-2.88-.08-5.77-.08s-4.33-.02-5.78-.05c-1.44-.02-2.89-.05-5.77-.05h-11.57c-2.89,0-4.35,.05-5.77,.09-1.42,.05-2.89,.09-5.79,.09s-4.38-.1-5.79-.2-2.88-.2-5.76-.2-4.35,.08-5.77,.16c-1.43,.08-2.9,.16-5.79,.16s-4.34-.02-5.78-.05c-1.44-.02-2.89-.05-5.77-.05s-4.35,.07-5.77,.13c-1.43,.07-2.89,.14-5.79,.14s-4.38-.12-5.81-.24c-1.42-.12-2.88-.23-5.76-.23v-.58c2.9,0,4.38,.12,5.81,.24,1.42,.12,2.88,.24,5.76,.24s4.35-.07,5.77-.13c1.43-.07,2.89-.14,5.79-.14s4.34,.02,5.78,.05c1.44,.02,2.89,.05,5.77,.05s4.35-.08,5.77-.16c1.43-.08,2.9-.16,5.79-.16s4.38,.1,5.79,.2,2.88,.2,5.76,.2,4.35-.05,5.77-.09c1.42-.05,2.89-.09,5.79-.09h11.57c2.89,0,4.33,.02,5.78,.05,1.44,.02,2.89,.05,5.77,.05s4.37,.05,5.78,.08c1.42,.03,2.88,.08,5.77,.08s4.35-.08,5.77-.16c1.43-.08,2.9-.16,5.79-.16s4.34,.02,5.78,.03c1.44,.02,2.89,.03,5.78,.03s4.37,.03,5.78,.06,2.89,.06,5.77,.06,4.34,.02,5.78,.03c1.44,.02,2.89,.03,5.78,.03s4.34,.02,5.78,.05c1.44,.02,2.89,.05,5.77,.05s4.35-.03,5.78-.07,2.89-.07,5.79-.07,4.35-.08,5.77-.17c1.43-.08,2.9-.17,5.81-.17s4.39,.12,5.82,.23c1.42,.12,2.88,.23,5.77,.23v.58c-2.9,0-4.39-.12-5.82-.23-1.42-.12-2.88-.23-5.77-.23s-4.35,.08-5.77,.17c-1.43,.08-2.9,.17-5.81,.17s-4.35,.03-5.78,.07-2.89,.07-5.79,.07h0Z"/><path class="h" d="M144.04,171.35c-2.9,0-4.38-.07-5.79-.14s-2.88-.14-5.77-.14-4.37-.05-5.79-.1c-1.42-.05-2.88-.1-5.77-.1s-4.34,.1-5.76,.2c-1.43,.1-2.9,.2-5.81,.2s-4.37-.06-5.79-.12c-1.42-.06-2.88-.12-5.77-.12s-4.35,.06-5.77,.12-2.89,.12-5.79,.12-4.33,.02-5.77,.03c-1.44,.02-2.89,.03-5.78,.03s-4.37-.03-5.78-.07-2.89-.08-5.77-.08-4.33,.01-5.78,.03-2.89,.03-5.78,.03-4.38-.1-5.81-.21c-1.42-.1-2.88-.21-5.76-.21s-4.35,.07-5.77,.14c-1.43,.07-2.9,.14-5.79,.14s-4.35,.05-5.77,.08c-1.42,.05-2.89,.08-5.79,.08s-4.38-.12-5.81-.23c-1.42-.12-2.88-.23-5.76-.23s-4.35,.06-5.77,.1c-1.43,.05-2.89,.1-5.79,.1v-.58c2.88,0,4.35-.06,5.77-.1,1.43-.05,2.89-.1,5.79-.1s4.38,.12,5.81,.23c1.42,.12,2.88,.23,5.76,.23s4.35-.05,5.77-.08c1.42-.05,2.89-.08,5.79-.08s4.35-.07,5.77-.14c1.43-.07,2.9-.14,5.79-.14s4.38,.1,5.81,.21c1.42,.1,2.88,.21,5.76,.21s4.33-.01,5.78-.03,2.89-.03,5.78-.03,4.37,.03,5.78,.08c1.42,.03,2.89,.07,5.77,.07s4.33-.02,5.77-.03c1.44-.02,2.89-.03,5.78-.03s4.35-.06,5.77-.12c1.43-.06,2.89-.12,5.79-.12s4.37,.06,5.79,.12c1.42,.06,2.88,.12,5.77,.12s4.34-.1,5.76-.2c1.43-.1,2.9-.2,5.81-.2s4.37,.05,5.79,.1c1.42,.05,2.89,.1,5.77,.1s4.38,.07,5.79,.14,2.88,.14,5.77,.14,4.35-.07,5.77-.14c1.43-.07,2.89-.14,5.79-.14s4.35-.05,5.77-.1c1.43-.05,2.9-.1,5.79-.1s4.37,.03,5.79,.07c1.42,.03,2.89,.07,5.78,.07s4.38,.06,5.81,.12c1.42,.06,2.89,.12,5.78,.12v.58c-2.9,0-4.38-.06-5.81-.12-1.42-.06-2.89-.12-5.78-.12s-4.38-.03-5.79-.07-2.89-.07-5.78-.07-4.35,.05-5.77,.1c-1.43,.05-2.9,.1-5.79,.1s-4.35,.07-5.77,.14c-1.43,.07-2.89,.14-5.79,.14Z"/></g><path class="g" d="M-8.18,193.78c3.45-1.48,5.3-6.08,8.18-9.05,7.22-7.49,18.35-10.54,28.48-9.87,18.2,1.21,15.39,18.29,17.11,31.7,1.53,11.95,15.47,17.4,24.24,23.83,8.25,6.05,10.5,15.56,9.35,25.88-3.28,29.51-51.04,18.42-69.2,13.66-13.23-3.46-24.7-14.38-26.4-28.98-1.29-11.08-4.84-37.43,8.24-47.17h-.01Z"/><path class="h" d="M188.83,218.3c-3.36-1.68-7.94-.06-12.01-.3-10.24-.62-19.82-7.16-26.05-15.42-11.17-14.83,3.13-23.98,11.77-34.18,7.69-9.1,2.44-23.44,1.3-34.46-1.07-10.37,4.39-18.39,12.67-24.35,23.66-17.02,47.22,27.14,55.78,44.29,6.24,12.49,5.89,28.56-3.63,39.54-7.22,8.34-24.06,28.51-39.83,24.89h0Z"/></g></g></g></g></g></svg>